# xmcd
#
# Track frame offsets: 
#        150
#        16880
#        32588
#        53661
#        72563
#        97550
#        111559
#        132347
#        148059
#        162762
#
# Disc length: 2453 seconds
#
# Revision: 0
# Processed by: cddbd v1.5.2PL0 Copyright (c) Steve Scherf et al.
# Submitted via: ExactAudioCopy v0.99pb4
#
DISCID=8209930a
DTITLE=Boo Bradley - Dubl Handi
DYEAR=2008
DGENRE=
TTITLE0=Troublin Mind
TTITLE1=Hogan's Alley
TTITLE2=Can't Be Satisfied
TTITLE3=Diddy Wah  Diddy
TTITLE4=Trimmed and Burnin
TTITLE5=Raptor
TTITLE6=Stone Pony
TTITLE7=Glory of Love
TTITLE8=Louis Collins
TTITLE9=Walkin' Blues
EXTD=
EXTT0=
EXTT1=
EXTT2=
EXTT3=
EXTT4=
EXTT5=
EXTT6=
EXTT7=
EXTT8=
EXTT9=
PLAYORDER=
